<svg width="229" height="52" viewBox="0 0 229 52" fill="none" xmlns="http://www.w3.org/2000/svg">
<path d="M29.7899 0.389494C29.8121 2.41906 29.8475 4.44732 29.8528 6.47689C29.8632 10.4286 29.8554 14.379 29.8554 18.3307C29.8554 18.5888 29.8554 18.8469 29.8554 19.2675C32.5388 17.7371 35.099 16.2762 37.7247 14.7773C38.2632 15.7115 38.7899 16.626 39.3573 17.6113C35.1226 20.034 30.9167 22.4396 26.6047 24.9055C26.6047 24.5674 26.6047 24.3565 26.6047 24.1442C26.5955 19.4509 26.5889 14.7576 26.5785 10.0643C26.5719 7.09532 26.5588 4.12631 26.5575 1.15861C26.5575 0.901799 26.6151 0.644991 26.6453 0.388184C27.6935 0.388184 28.7417 0.388184 29.7899 0.388184V0.389494Z" fill="#4285F4"/>
<path d="M22.1921 51.3617V32.5086C19.5087 34.0377 16.9458 35.4973 14.3096 36.9988C13.7698 36.062 13.2444 35.1488 12.6784 34.1635C16.9262 31.7382 21.1321 29.3378 25.4677 26.8628V51.363H22.1921V51.3617Z" fill="#FFAD0F"/>
<path d="M49.9691 16.5118C47.8544 17.7238 45.737 18.9292 43.6249 20.1477C40.5288 21.9336 37.4366 23.7286 34.3431 25.5211C34.1571 25.6285 33.975 25.7425 33.7142 25.8984C36.3111 27.375 38.8425 28.8137 41.4329 30.2864C40.8878 31.2521 40.3663 32.1732 39.8239 33.1336C35.597 30.7371 31.399 28.3551 27.108 25.922C34.2147 21.8078 41.2219 17.75 48.2619 13.6738C48.8475 14.6041 49.4083 15.4924 49.9691 16.3808V16.5118Z" fill="#34A853"/>
<path d="M3.73592 38.1354C3.18692 37.1855 2.65497 36.267 2.0968 35.3014C7.50811 32.1673 12.8814 29.0555 18.3491 25.8886C15.6762 24.3517 13.0858 22.8606 10.4457 21.342C10.992 20.3869 11.5083 19.4867 12.0704 18.5054C16.347 20.9581 20.5883 23.3913 24.9134 25.8742C17.8119 29.987 10.7981 34.0475 3.73723 38.1368L3.73592 38.1354Z" fill="#696969"/>
<path d="M29.8373 41.482H26.5957V26.895C33.6894 30.979 40.7084 35.0185 47.7706 39.0842C47.219 40.042 46.6896 40.9592 46.1354 41.9209C40.7175 38.8025 35.3416 35.709 29.8373 32.5422V41.4833V41.482Z" fill="#EA4335"/>
<path d="M4.27296 12.712C4.83506 11.7398 5.35523 10.8396 5.91077 9.87793C11.3208 12.9911 16.6941 16.0832 22.1683 19.2331V10.2684H25.4151V24.8828C18.3686 20.8263 11.3575 16.7908 4.27296 12.7133V12.712Z" fill="#3265CD"/>
<path d="M0 24.4697C0.175573 23.2879 0.307907 22.0969 0.533269 20.9242C2.55629 10.4056 11.1187 2.09602 21.7003 0.357329C35.3962 -1.89236 48.2353 6.68974 51.4009 20.2115C54.6909 34.2612 45.5415 48.5599 31.4144 51.449C20.1345 53.755 8.9791 48.6948 3.31885 38.6689C1.4832 35.4155 0.411417 31.9132 0.125783 28.179C0.10744 27.9458 0.0432381 27.7152 0 27.4833C0 26.4783 0 25.4747 0 24.4697ZM51.4651 26.0185C51.3878 11.8351 40.1157 0.948249 26.729 0.598414C12.5023 0.227615 0.900138 11.5468 0.631538 25.4865C0.357697 39.6476 11.6834 51.2642 25.7725 51.4057C39.9087 51.5486 51.3458 40.2412 51.4651 26.0171V26.0185Z" fill="white"/>
<path d="M65.3831 37.2109H66.7607L69.1559 42.8988H69.2441L71.6394 37.2109H73.017V44.5279H71.9369V39.2331H71.8671L69.6482 44.5172H68.7518L66.5329 39.2295H66.4631V44.5279H65.3831V37.2109Z" fill="white"/>
<path d="M78.5647 37.2109V44.5279H77.4296V37.2109H78.5647Z" fill="white"/>
<path d="M89.0527 37.2109V44.5279H88.0093L84.185 39.1616H84.1152V44.5279H82.98V37.2109H84.0307L87.8587 42.5843H87.9285V37.2109H89.0527Z" fill="white"/>
<path d="M94.6059 37.2109V44.5279H93.4707V37.2109H94.6059Z" fill="white"/>
<path d="M105.094 37.2109V44.5279H104.051L100.226 39.1616H100.156V44.5279H99.0212V37.2109H100.072L103.9 42.5843H103.97V37.2109H105.094Z" fill="white"/>
<path d="M114.604 39.5225C114.533 39.3057 114.437 39.1116 114.317 38.9401C114.2 38.7662 114.059 38.6186 113.895 38.4971C113.731 38.3732 113.543 38.2791 113.333 38.2148C113.124 38.1505 112.895 38.1184 112.646 38.1184C112.222 38.1184 111.84 38.2244 111.499 38.4363C111.159 38.6483 110.89 38.9592 110.691 39.3688C110.495 39.7761 110.397 40.2751 110.397 40.8658C110.397 41.4589 110.496 41.9603 110.695 42.37C110.893 42.7797 111.165 43.0905 111.51 43.3025C111.856 43.5145 112.249 43.6205 112.69 43.6205C113.099 43.6205 113.455 43.5395 113.759 43.3775C114.065 43.2155 114.301 42.9869 114.468 42.6915C114.637 42.3938 114.721 42.0437 114.721 41.6411L115.015 41.6947H112.862V40.7837H115.82V41.6161C115.82 42.2306 115.685 42.7642 115.416 43.2167C115.149 43.6669 114.779 44.0147 114.306 44.26C113.836 44.5053 113.297 44.628 112.69 44.628C112.009 44.628 111.411 44.4755 110.897 44.1707C110.385 43.8658 109.986 43.4335 109.699 42.8737C109.413 42.3116 109.269 41.6447 109.269 40.873C109.269 40.2894 109.353 39.7654 109.519 39.301C109.686 38.8365 109.92 38.4423 110.221 38.1184C110.525 37.7921 110.881 37.5431 111.29 37.3717C111.701 37.1978 112.151 37.1108 112.638 37.1108C113.045 37.1108 113.423 37.1692 113.773 37.2859C114.126 37.4026 114.44 37.5682 114.714 37.7825C114.991 37.9969 115.22 38.2517 115.401 38.5471C115.582 38.8401 115.705 39.1652 115.768 39.5225H114.604Z" fill="white"/>
<path d="M126.658 37.2109V44.5279H125.523V37.2109H126.658Z" fill="white"/>
<path d="M137.146 37.2109V44.5279H136.103L132.278 39.1616H132.208V44.5279H131.073V37.2109H132.124L135.952 42.5843H136.022V37.2109H137.146Z" fill="white"/>
<path d="M141.193 38.1612V37.2109H147.016V38.1612H144.668V44.5279H143.537V38.1612H141.193Z" fill="white"/>
<path d="M151.065 44.5279V37.2109H155.782V38.1612H152.2V40.3907H155.535V41.3374H152.2V43.5776H155.826V44.5279H151.065Z" fill="white"/>
<path d="M160.06 44.5279V37.2109H161.195V43.5776H164.604V44.5279H160.06Z" fill="white"/>
<path d="M168.662 44.5279V37.2109H169.797V43.5776H173.206V44.5279H168.662Z" fill="white"/>
<path d="M178.398 37.2109V44.5279H177.263V37.2109H178.398Z" fill="white"/>
<path d="M187.905 39.5225C187.834 39.3057 187.739 39.1116 187.619 38.9401C187.501 38.7662 187.36 38.6186 187.196 38.4971C187.032 38.3732 186.845 38.2791 186.634 38.2148C186.426 38.1505 186.197 38.1184 185.947 38.1184C185.524 38.1184 185.141 38.2244 184.801 38.4363C184.461 38.6483 184.191 38.9592 183.993 39.3688C183.797 39.7761 183.699 40.2751 183.699 40.8658C183.699 41.4589 183.798 41.9603 183.997 42.37C184.195 42.7797 184.467 43.0905 184.812 43.3025C185.157 43.5145 185.55 43.6205 185.991 43.6205C186.4 43.6205 186.757 43.5395 187.06 43.3775C187.367 43.2155 187.603 42.9869 187.769 42.6915C187.938 42.3938 188.023 42.0437 188.023 41.6411L188.317 41.6947H186.164V40.7837H189.121V41.6161C189.121 42.2306 188.987 42.7642 188.717 43.2167C188.45 43.6669 188.08 44.0147 187.608 44.26C187.138 44.5053 186.599 44.628 185.991 44.628C185.31 44.628 184.713 44.4755 184.199 44.1707C183.687 43.8658 183.287 43.4335 183.001 42.8737C182.714 42.3116 182.571 41.6447 182.571 40.873C182.571 40.2894 182.654 39.7654 182.821 39.301C182.987 38.8365 183.221 38.4423 183.523 38.1184C183.826 37.7921 184.183 37.5431 184.592 37.3717C185.003 37.1978 185.453 37.1108 185.94 37.1108C186.346 37.1108 186.725 37.1692 187.075 37.2859C187.428 37.4026 187.741 37.5682 188.016 37.7825C188.292 37.9969 188.521 38.2517 188.703 38.5471C188.884 38.8401 189.006 39.1652 189.07 39.5225H187.905Z" fill="white"/>
<path d="M193.324 44.5279V37.2109H198.041V38.1612H194.46V40.3907H197.795V41.3374H194.46V43.5776H198.086V44.5279H193.324Z" fill="white"/>
<path d="M208.393 37.2109V44.5279H207.349L203.525 39.1616H203.455V44.5279H202.32V37.2109H203.371L207.199 42.5843H207.268V37.2109H208.393Z" fill="white"/>
<path d="M219.06 39.5904H217.913C217.869 39.3522 217.787 39.1426 217.667 38.9615C217.547 38.7805 217.4 38.6269 217.226 38.5007C217.053 38.3744 216.858 38.2791 216.642 38.2148C216.429 38.1505 216.203 38.1184 215.963 38.1184C215.529 38.1184 215.141 38.2244 214.798 38.4363C214.458 38.6483 214.188 38.9592 213.99 39.3688C213.794 39.7785 213.696 40.2787 213.696 40.8694C213.696 41.4649 213.794 41.9674 213.99 42.3771C214.188 42.7868 214.459 43.0964 214.802 43.306C215.145 43.5157 215.53 43.6205 215.959 43.6205C216.197 43.6205 216.422 43.5895 216.635 43.5276C216.85 43.4633 217.045 43.3692 217.219 43.2453C217.393 43.1215 217.54 42.9702 217.66 42.7916C217.782 42.6105 217.867 42.4033 217.913 42.1699L219.06 42.1735C218.998 42.5331 218.88 42.8642 218.703 43.1667C218.529 43.4668 218.305 43.7264 218.031 43.9456C217.759 44.1623 217.448 44.3302 217.098 44.4493C216.748 44.5684 216.366 44.628 215.952 44.628C215.3 44.628 214.72 44.4779 214.21 44.1778C213.701 43.8753 213.299 43.443 213.005 42.8809C212.714 42.3188 212.568 41.6483 212.568 40.8694C212.568 40.0882 212.715 39.4177 213.009 38.8579C213.303 38.2958 213.705 37.8647 214.214 37.5646C214.723 37.2621 215.303 37.1108 215.952 37.1108C216.351 37.1108 216.723 37.1668 217.068 37.2788C217.416 37.3883 217.729 37.5503 218.005 37.7647C218.282 37.9766 218.511 38.2363 218.692 38.5435C218.873 38.8484 218.996 39.1973 219.06 39.5904Z" fill="white"/>
<path d="M223.18 44.5279V37.2109H227.897V38.1612H224.315V40.3907H227.651V41.3374H224.315V43.5776H227.941V44.5279H223.18Z" fill="white"/>
<path d="M65.8532 7.32812H68.732V28.8953H65.8532V7.32812Z" fill="white"/>
<path d="M148.398 28.8284H145.531C145.531 28.4781 145.531 28.1623 145.531 27.8464C145.531 23.5765 145.548 19.3083 145.523 15.0384C145.512 12.9337 144.554 11.3233 142.623 10.428C140.726 9.54918 138.885 9.82413 137.271 11.1498C136.073 12.1334 135.517 13.4443 135.522 15.0007C135.533 19.2968 135.527 23.5929 135.527 27.889C135.527 28.1803 135.527 28.4732 135.527 28.8186H132.631C132.631 28.5158 132.631 28.2277 132.631 27.9397C132.631 23.6698 132.631 19.4015 132.631 15.1316C132.631 11.6653 134.581 8.77507 137.69 7.61799C140.924 6.41509 144.281 7.30049 146.628 9.9747C146.716 10.0762 146.809 10.1711 146.829 10.1924C147.847 9.43298 148.754 8.54594 149.834 7.98459C155.025 5.2891 161.229 9.01565 161.262 14.8125C161.288 19.2444 161.267 23.6747 161.265 28.1066C161.265 28.321 161.247 28.5354 161.234 28.8104H158.462C158.441 28.4929 158.4 28.1574 158.4 27.8219C158.395 23.5258 158.411 19.2297 158.39 14.9336C158.378 12.59 156.861 10.6719 154.645 10.1056C152.438 9.541 150.058 10.4984 149.043 12.5573C148.619 13.4165 148.439 14.4688 148.425 15.4377C148.359 19.5439 148.397 23.6518 148.397 27.758C148.397 28.1001 148.397 28.4438 148.397 28.8284H148.398Z" fill="white"/>
<path d="M227.463 26.2764V29.0635C227.193 29.0864 226.956 29.1257 226.718 29.1257C222.71 29.129 218.704 29.1355 214.696 29.1257C213.143 29.1208 212.118 28.3401 212.125 27.0177C212.128 26.3991 212.4 25.6806 212.783 25.1815C216.457 20.3879 220.18 15.6319 223.89 10.8645C224.082 10.6173 224.264 10.3637 224.566 9.9545H212.699V7.17391C212.935 7.14609 213.144 7.09863 213.352 7.09863C217.414 7.09372 221.476 7.08226 225.538 7.1019C227.295 7.11008 228.373 8.35554 227.985 9.93322C227.876 10.3817 227.566 10.8039 227.275 11.182C223.645 15.8725 220 20.5531 216.362 25.2371C216.138 25.5252 215.925 25.8214 215.585 26.2764H227.465H227.463Z" fill="white"/>
<path d="M75.3085 28.8281H72.4134C72.4134 28.5515 72.4134 28.2684 72.4134 27.9852C72.4134 24.0132 72.4085 20.0395 72.4134 16.0675C72.4216 11.1462 76.3854 7.18399 81.3852 7.09234C86.3245 7.00232 90.4913 10.9334 90.5617 15.8482C90.6222 20.0362 90.5748 24.2259 90.5715 28.4156C90.5715 28.522 90.5502 28.63 90.5322 28.8035H87.7042C87.7042 28.4386 87.7042 28.0965 87.7042 27.7545C87.7042 23.9166 87.7238 20.0788 87.696 16.241C87.6714 12.9301 85.534 10.4948 82.305 10.0202C78.7078 9.4916 75.3445 12.3016 75.3134 15.9202C75.2791 19.92 75.3053 23.9199 75.3053 27.9198C75.3053 28.2094 75.3053 28.4991 75.3053 28.8297L75.3085 28.8281Z" fill="white"/>
<path d="M174.987 28.8363H172.139C172.123 28.5679 172.095 28.3323 172.095 28.0966C172.092 24.1229 172.041 20.1492 172.108 16.1788C172.172 12.4163 173.909 9.56695 177.365 7.97126C180.745 6.41158 184.024 6.84364 186.952 9.14635C189.07 10.8108 190.227 13.0595 190.27 15.7451C190.337 19.9332 190.289 24.1229 190.286 28.3126C190.286 28.4697 190.245 28.6252 190.216 28.8265H187.424C187.424 28.491 187.424 28.1768 187.424 27.8625C187.424 23.9445 187.437 20.0249 187.419 16.1068C187.406 13.1724 185.275 10.6127 182.443 10.0792C179.466 9.51785 176.583 11.0104 175.485 13.7845C175.174 14.5684 175.02 15.4604 175.01 16.3049C174.961 20.1689 174.989 24.0345 174.989 27.8986V28.838L174.987 28.8363Z" fill="white"/>
<path d="M97.4315 28.8309H94.5478V27.9733C94.5478 23.7051 94.5429 19.4352 94.5478 15.1669C94.5543 10.5697 97.9257 7.17374 102.554 7.09518C103.15 7.08536 103.745 7.09518 104.395 7.09518V9.93797C103.837 9.93797 103.276 9.93469 102.716 9.93797C99.5885 9.96251 97.4429 12.1065 97.4347 15.2095C97.4347 15.8576 97.474 16.5089 97.4233 17.1538C97.3709 17.8149 97.5837 18.0539 98.2809 18.0326C99.8602 17.9851 101.443 18.0179 103.024 18.0179C103.317 18.0179 103.611 18.0179 104.009 18.0179C104.009 18.8787 104.05 19.6561 103.976 20.4237C103.96 20.5873 103.538 20.8328 103.299 20.8394C101.664 20.877 100.027 20.8574 98.3922 20.8623C98.0992 20.8623 97.8046 20.8885 97.4298 20.9048V28.8326L97.4315 28.8309Z" fill="white"/>
<path d="M119.635 9.87117V7.13641C121.795 7.09058 123.643 7.78614 125.252 9.07905C127.504 10.8875 128.649 13.2655 128.658 16.1361C128.663 17.9969 128.731 19.879 128.479 21.7136C127.933 25.707 124.245 28.9 120.21 29.08C120.049 29.0865 119.889 29.08 119.656 29.08V26.3452C119.912 26.2929 120.195 26.2241 120.481 26.1783C123.568 25.6988 125.749 23.2029 125.766 20.1163C125.772 18.8463 125.769 17.5763 125.766 16.3063C125.763 12.9856 123.664 10.5405 120.368 10.0119C120.129 9.97428 119.894 9.92027 119.633 9.86953L119.635 9.87117Z" fill="white"/>
<path d="M117.064 7.13955V9.88741C116.752 9.94305 116.443 10.0052 116.13 10.0543C113.233 10.5093 111.025 12.9839 110.966 15.8823C110.939 17.2587 110.955 18.6367 110.962 20.0147C110.978 23.2797 113.088 25.6937 116.364 26.2076C116.578 26.242 116.79 26.2911 117.055 26.3435V29.0553C115.331 29.1781 113.803 28.6691 112.413 27.7935C109.616 26.0309 108.099 23.4941 108.086 20.18C108.078 18.1866 107.983 16.1589 108.305 14.2064C108.945 10.3309 112.57 7.3294 116.485 7.13791C116.646 7.12973 116.808 7.13791 117.064 7.13791V7.13955Z" fill="white"/>
<path d="M168.385 28.8506H165.635V7.39307H168.385V28.8506Z" fill="white"/>
<path d="M207.907 10.0319H194.372V7.25293H207.907V10.0319Z" fill="white"/>
<path d="M207.914 16.6562V19.3992H194.39V16.6562H207.914Z" fill="white"/>
<path d="M194.366 28.999V26.2217H207.899V28.999H194.366Z" fill="white"/>
</svg>
