<svg width="117" height="116" viewBox="0 0 117 116" fill="none" xmlns="http://www.w3.org/2000/svg">
<path d="M0 74.5591C1.26149 73.8723 2.53672 73.1992 3.78447 72.4826C8.96168 69.5063 14.1343 66.5223 19.3024 63.5308C19.6618 63.3224 20.0281 63.1256 20.4654 62.8806L22.1688 65.8134C21.3331 66.3033 20.5524 66.7681 19.7671 67.2237C14.5945 70.2091 9.42034 73.1854 4.24465 76.1526C3.64253 76.496 3.40903 76.8669 3.41132 77.5743C3.44184 84.7311 3.44184 91.8887 3.41132 99.0471C3.38582 99.3238 3.44732 99.6016 3.58727 99.8417C3.72723 100.082 3.93863 100.272 4.192 100.386C10.4315 103.958 16.6573 107.552 22.8694 111.167C23.4486 111.504 23.8515 111.458 24.4033 111.138C30.42 107.639 36.4488 104.157 42.4899 100.691C42.8471 100.485 43.2157 100.295 43.6988 100.031L45.4021 102.967L40.2005 105.982C34.9622 109.006 29.7171 112.017 24.4971 115.069C23.8492 115.446 23.3959 115.442 22.748 115.069C15.6812 110.957 8.60149 106.866 1.50877 102.795C1.01654 102.511 0.510557 102.252 0.00916675 101.982L0 74.5591Z" fill="#3265CD"/>
<path d="M58.7251 0.988958C61.7998 2.79991 64.8677 4.6246 67.9539 6.41724C72.3939 8.99516 76.8431 11.5586 81.3014 14.1075C81.8967 14.4441 82.1714 14.7943 82.1691 15.5247C82.1416 22.6449 82.1531 29.7651 82.1485 36.8853C82.1485 37.2195 82.105 37.5538 82.0798 37.9155H78.7166V36.5143C78.7166 30.2687 78.7006 24.0254 78.7372 17.7798C78.7372 16.9052 78.4808 16.429 77.7093 15.9894C71.6285 12.5247 65.5667 9.02568 59.5241 5.49229C58.7961 5.06645 58.281 5.08477 57.569 5.49229C51.4561 9.05468 45.3273 12.5904 39.1824 16.0993C38.9135 16.2222 38.6897 16.4259 38.5419 16.6819C38.3942 16.938 38.33 17.2337 38.3582 17.5279C38.3879 23.8858 38.3765 30.2459 38.3765 36.606V37.9041H35.0087C34.9881 37.54 34.9492 37.1737 34.9492 36.8097C34.9492 29.7651 34.9492 22.7204 34.9286 15.6758C34.9286 14.8973 35.1575 14.4669 35.8443 14.0731C42.9767 9.99182 50.0947 5.88759 57.1981 1.76047C57.5691 1.52144 57.9267 1.26238 58.2695 0.984375L58.7251 0.988958Z" fill="#3265CD"/>
<path d="M42.3936 94.9166H35.3421V91.5374H42.4256C43.0346 89.8272 43.9207 88.3322 45.5324 87.6568C48.7377 86.322 52.094 86.2305 55.2603 87.6568C56.3936 88.165 57.3208 89.4403 57.9916 90.5667C58.4609 91.3451 58.8662 91.5878 59.7522 91.4229C59.8323 91.2581 59.956 91.0337 60.0544 90.8002C61.0755 88.4215 62.8842 87.0409 65.4461 86.8097C67.0008 86.664 68.5653 86.6578 70.1211 86.7914C72.6281 87.0203 74.4528 88.3436 75.4624 90.6834C75.7074 91.2535 75.9913 91.471 76.6369 91.4549C78.6859 91.4046 80.735 91.4367 82.8597 91.4367V94.8708C81.1471 94.8708 79.4117 94.9303 77.6832 94.8502C76.4583 94.7953 75.696 94.9945 75.0778 96.3063C74.1117 98.3668 72.2274 99.4177 69.9128 99.5116C68.6215 99.5665 67.3257 99.5527 66.0207 99.5367C63.2207 99.5024 61.2953 98.1379 60.0682 95.6447C59.9102 95.3241 59.45 94.9258 59.1638 94.9578C58.9529 94.9988 58.7533 95.0851 58.579 95.2109C58.4046 95.3366 58.2597 95.4987 58.1542 95.6859C57.0232 97.9982 55.2511 99.3788 52.6595 99.5528C51.2543 99.6516 49.8445 99.6645 48.4377 99.5917C45.7224 99.4406 43.797 98.0829 42.7004 95.576C42.6202 95.3745 42.5149 95.1639 42.3936 94.9166ZM71.8474 91.3909C70.3432 89.5822 65.0248 89.6326 63.7977 91.4183L65.5789 91.5077V94.8342L63.7473 94.9555C65.2904 96.668 70.8011 96.5856 71.6871 94.9189L69.9815 94.8136V91.5054L71.8474 91.3909ZM48.1378 91.4916V94.9509H46.4505C47.7601 96.7825 53.3852 96.7207 54.4361 94.8777H52.6595V91.5259L54.5506 91.416C52.8701 89.6577 47.5311 89.7516 46.478 91.4916H48.1378Z" fill="#34A853"/>
<path d="M94.6408 75.0818L91.6646 76.7783C90.6183 74.9468 89.5766 73.1862 88.6058 71.389C88.267 70.7639 87.903 70.5899 87.1818 70.6518C84.4345 70.8807 82.3053 69.7703 80.8904 67.3755C80.3089 66.3934 79.7319 65.4112 79.1939 64.3993C77.8866 61.9541 78.0492 59.5914 79.6151 57.302C79.8212 56.9997 79.97 56.4045 79.8098 56.171C79.67 56.0028 79.4951 55.8672 79.2973 55.7739C79.0996 55.6806 78.8837 55.6316 78.665 55.6306C75.7414 55.8069 73.5802 54.6508 72.1516 52.1026C71.7418 51.3723 71.3113 50.6557 70.897 49.9299C69.1318 46.8231 69.2943 44.5268 71.5288 41.6032C70.3979 39.6136 69.2394 37.5806 68.0214 35.4354L70.9702 33.7229C72.0027 35.5178 73.0307 37.2372 73.9854 39.0024C74.3426 39.6686 74.7249 39.8838 75.4964 39.8152C78.2232 39.5656 80.3043 40.692 81.7032 43.0204C82.2915 43.9957 82.8479 44.9893 83.4019 45.9967C84.7618 48.4807 84.5673 50.8663 82.9692 53.1901C82.7678 53.4832 82.6693 54.0555 82.825 54.3348C82.9489 54.4952 83.1083 54.6247 83.2906 54.7133C83.4729 54.8019 83.6732 54.8471 83.8758 54.8454C86.8086 54.5958 88.9676 55.7612 90.4328 58.2796C91.0258 59.2961 91.6371 60.308 92.1636 61.3611C93.3198 63.6712 93.1802 65.9401 91.6646 68.0326C91.1563 68.7332 91.2319 69.1773 91.6211 69.8275C92.6284 71.5149 93.59 73.2434 94.6408 75.0818ZM73.4955 45.09C72.5545 47.0498 75.3133 51.8393 77.4654 52.0431L76.6549 50.4542L79.5488 48.7944C79.7617 49.1286 79.9014 49.353 80.0456 49.5705C80.1898 49.788 80.3753 50.0467 80.5676 50.326C81.3666 48.1556 78.5437 43.3478 76.5427 43.4096L77.3898 44.9778L74.4662 46.6468L73.4955 45.09ZM83.0814 61.716C82.8731 61.3841 82.738 61.1597 82.5937 60.9399C82.4495 60.7201 82.2663 60.4591 82.0763 60.1798C81.2292 62.2403 84.0178 67.0024 86.0806 67.0916C85.8104 66.5788 85.5494 66.0774 85.2587 65.5234L88.1594 63.8567L89.2217 65.4867C89.833 63.005 87.1612 58.4788 85.1854 58.4742C85.4441 58.9916 85.6982 59.4907 85.9798 60.0516C85.0137 60.5965 84.0979 61.1208 83.0814 61.716Z" fill="#34A853"/>
<path d="M25.4255 76.7554L22.4492 75.0796C23.413 73.3945 24.3013 71.7324 25.2972 70.1366C25.8375 69.2735 25.9062 68.6851 25.2492 67.7556C23.8755 65.8141 23.8023 63.6231 24.8668 61.4802C25.5095 60.1859 26.2265 58.93 27.0143 57.7186C28.4063 55.5963 30.4302 54.6645 32.9669 54.8454C33.4866 54.882 33.9514 55.04 34.3246 54.3875C34.6978 53.735 34.3131 53.4236 34.0224 52.9932C32.5502 50.8159 32.3945 48.5356 33.5919 46.2004C34.1482 45.1198 34.771 44.0712 35.396 43.0295C36.7995 40.6897 38.8737 39.5633 41.5959 39.8083C42.3628 39.877 42.7543 39.6778 43.1115 39.007C44.0433 37.2693 45.0575 35.5728 46.1175 33.7229L49.0938 35.4057C48.0338 37.2578 47.0333 39.0413 45.9939 40.7973C45.6619 41.3559 45.6482 41.7268 46.0672 42.2969C47.6698 44.4925 47.8003 46.8598 46.5548 49.2728C46.0122 50.3168 45.4101 51.3334 44.7988 52.3407C43.3954 54.6783 41.328 55.7451 38.599 55.6306C38.119 55.6326 37.6546 55.8009 37.2848 56.1069C36.7033 56.6083 37.2711 57.0226 37.5573 57.453C38.9973 59.5891 39.1896 61.8328 38.0151 64.1406C37.4703 65.2258 36.8429 66.272 36.2248 67.3183C34.7893 69.7451 32.651 70.899 29.8418 70.6357C29.1435 70.5716 28.8276 70.7639 28.5116 71.3386C27.534 73.1381 26.4923 74.8987 25.4255 76.7554ZM33.9857 61.7091L31.101 60.0241L31.9321 58.3986C29.7777 58.6596 27.1013 63.3003 27.9393 65.3585L28.9192 63.8498L31.8131 65.5028L30.9774 67.2107C33.3172 66.5971 35.8196 62.1487 34.9954 60.1546L33.9857 61.7091ZM39.5926 52.0935C41.8111 51.7844 44.5721 46.9742 43.5648 45.1724L42.6055 46.6606L39.7231 44.9939L40.5588 43.2928C38.2693 43.7507 35.6639 48.4166 36.5957 50.2619L37.5412 48.8012L40.4351 50.4771L39.5926 52.0935Z" fill="#34A853"/>
<path d="M71.9824 103.266C72.5502 102.286 73.0951 101.34 73.672 100.342L86.2869 107.618C88.3955 108.834 90.5178 110.029 92.6058 111.281C93.1667 111.615 93.5902 111.634 94.1649 111.299C100.377 107.679 106.6 104.081 112.833 100.505C113.417 100.17 113.575 99.7834 113.575 99.1492C113.552 91.9924 113.552 84.8348 113.575 77.6765C113.575 76.9599 113.314 76.605 112.719 76.2662C107.138 73.0747 101.567 69.8649 96.0056 66.6368C95.6782 66.449 95.3577 66.2498 94.9319 65.9957L96.6123 63.0652C97.1137 63.3468 97.5281 63.578 97.9585 63.8184C103.989 67.2938 110.01 70.7829 116.057 74.2331C116.732 74.6201 117.002 75.0276 117 75.8357C116.969 84.2136 116.969 92.59 117 100.965C117 101.727 116.814 102.183 116.109 102.588C108.815 106.764 101.546 110.986 94.2679 115.191C93.7825 115.473 93.3888 115.72 92.7317 115.336C86.0076 111.396 79.2445 107.503 72.4815 103.611C72.3304 103.52 72.1839 103.403 71.9824 103.266Z" fill="#3265CD"/>
<path d="M25.3407 108.232H21.9661C21.9454 107.806 21.9134 107.405 21.9134 107.002C21.9134 101.482 21.8836 95.9624 21.9363 90.4425C21.9363 89.5405 21.6249 89.1055 20.8831 88.6819C16.089 85.9575 11.3224 83.1873 6.54887 80.4285C6.19401 80.2224 5.8483 79.9958 5.45909 79.7531L7.15555 76.818C12.3801 79.8309 17.5268 82.7706 22.6437 85.7766C23.3603 86.1956 23.8732 86.2002 24.592 85.7766C29.3816 82.9675 34.2077 80.2087 39.0156 77.4361C39.3407 77.2484 39.6726 77.0699 40.0756 76.8432C40.6502 77.83 41.1951 78.7663 41.7858 79.7759C40.7006 80.4124 39.6933 81.0122 38.679 81.6075C34.558 83.984 30.4553 86.3741 26.316 88.7048C25.5994 89.11 25.3155 89.5359 25.3224 90.3807C25.3659 95.9006 25.3453 101.418 25.3453 106.938L25.3407 108.232Z" fill="#3265CD"/>
<path d="M75.0194 16.8155L76.6929 19.7048C76.3014 19.952 75.9672 20.1787 75.6169 20.3916C70.777 23.1916 65.9417 25.9985 61.0835 28.7665C60.4699 29.1167 60.2593 29.4968 60.2616 30.1951C60.2891 35.7539 60.2776 41.3126 60.2776 46.8714V48.1901H56.9144C56.8961 47.7711 56.8595 47.3339 56.8595 46.8966C56.8595 41.3744 56.8412 35.8546 56.8755 30.3324C56.8755 29.5471 56.6466 29.1076 55.9597 28.7161C51.1679 25.9871 46.3989 23.2214 41.6254 20.4534C41.2362 20.2245 40.8562 19.9956 40.4074 19.7277L42.1108 16.7834C46.9736 19.588 51.7952 22.2644 56.4931 25.1377C58.0362 26.0809 59.126 26.0717 60.6577 25.1377C65.0649 22.4338 69.5865 19.9223 74.0715 17.3398C74.3417 17.1566 74.6439 17.0124 75.0194 16.8155Z" fill="#3265CD"/>
<path d="M95.0853 108.33H91.6512C91.6512 107.861 91.6512 107.451 91.6512 107.043C91.6512 101.636 91.6214 96.2279 91.6695 90.8225C91.6695 89.7945 91.3971 89.2084 90.4675 88.6842C85.3987 85.8315 80.3779 82.8964 75.2106 79.9133L76.898 76.9622C77.3192 77.1911 77.6809 77.3811 78.0427 77.5849C82.8505 80.3597 87.6584 83.1231 92.4662 85.9277C93.1347 86.3169 93.6315 86.3329 94.2978 85.9277C99.0553 83.1391 103.838 80.3918 108.611 77.6307C108.971 77.4223 109.337 77.2232 109.823 76.9438L111.533 79.8423C111.171 80.0712 110.869 80.2795 110.553 80.4627C105.745 83.2444 100.949 86.0444 96.1156 88.778C95.2983 89.2359 95.0556 89.7579 95.0624 90.6576C95.1036 96.1019 95.0853 101.546 95.0876 106.991L95.0853 108.33Z" fill="#3265CD"/>
<path d="M66.2998 47.0733C66.8813 48.0738 67.4239 49.0102 68.0146 50.0313C64.933 51.8124 61.9453 53.5479 58.9415 55.2512C58.809 55.3063 58.6661 55.3321 58.5227 55.327C58.3793 55.3219 58.2387 55.2858 58.1104 55.2214C55.1044 53.5158 52.1167 51.7873 49.0694 50.0244L50.7796 47.0481C53.179 48.4218 55.4913 49.7359 57.7739 51.0981C58.3371 51.4347 58.7469 51.4415 59.3147 51.0981C61.595 49.7519 63.9073 48.4493 66.2998 47.0733Z" fill="#3265CD"/>
<path d="M36.3086 72.3209C36.8855 71.3159 37.4121 70.4046 38.0119 69.3629C38.9964 69.9284 39.9373 70.4619 40.876 71.0022C42.7488 72.0805 44.6353 73.1428 46.4829 74.267C46.8148 74.4661 47.1972 74.9171 47.2041 75.2605C47.2567 78.1842 47.2269 81.1101 47.2155 84.036C47.1899 84.1642 47.1468 84.2883 47.0873 84.4047H43.8065C43.8065 82.1587 43.7676 79.9677 43.8271 77.7789C43.85 76.9502 43.5982 76.49 42.8541 76.0871C40.6837 74.908 38.5705 73.6351 36.3086 72.3209Z" fill="#3265CD"/>
<path d="M79.197 69.5223L80.8224 72.375C78.533 73.6983 76.3488 75.0032 74.1212 76.2281C73.3863 76.631 73.1322 77.1073 73.1574 77.9338C73.2192 79.9393 73.178 81.9471 73.178 84.0168H69.7438C69.7438 82.0708 69.9384 80.1568 69.698 78.2932C69.3569 75.6718 70.2543 74.1104 72.6972 73.0481C74.8424 72.1117 76.7999 70.7426 78.8444 69.5681C78.9596 69.5384 79.078 69.523 79.197 69.5223Z" fill="#3265CD"/>
<path d="M19.9474 102.859C19.3201 103.926 18.7867 104.837 18.2166 105.812C14.1322 103.461 10.1211 101.158 6.12141 98.8319C6.0182 98.7636 5.93064 98.6742 5.86435 98.5696C5.79807 98.4651 5.75459 98.3477 5.7368 98.2252C5.69788 97.2087 5.71847 96.1921 5.71847 95.1161H9.15264C8.69475 96.7485 9.97916 97.1125 11.0071 97.7009C13.9536 99.3951 16.9025 101.096 19.9474 102.859Z" fill="#3265CD"/>
<path d="M57.6232 11.9656L55.961 9.10151C56.728 8.64362 57.4514 8.18575 58.2138 7.80799C58.3468 7.76174 58.488 7.74374 58.6283 7.75517C58.7687 7.7666 58.9051 7.80723 59.0289 7.87439C62.5256 9.87385 66.0125 11.887 69.4894 13.9139C69.5878 13.9712 69.6749 14.0467 69.8168 14.1429L68.1547 17.0619C67.2389 16.5376 66.3437 16.0431 65.4668 15.5395C63.4888 14.4062 61.5312 13.25 59.5303 12.1442C59.0174 11.8649 58.3856 11.8122 57.7949 11.6565L57.6232 11.9656Z" fill="#3265CD"/>
<path d="M108.025 95.7953H111.27C111.27 96.6607 111.297 97.517 111.251 98.3687C111.23 98.4912 111.184 98.6079 111.115 98.7112C111.046 98.8145 110.956 98.9022 110.851 98.9685C107.252 101.068 103.643 103.144 99.9665 105.267C99.3758 104.241 98.8218 103.3 98.2563 102.304C101.212 100.594 104.11 98.9387 106.975 97.2308C107.419 96.9652 107.716 96.4547 108.08 96.0586L108.025 95.7953Z" fill="#3265CD"/>
<path d="M51.0045 11.9618L53.9693 10.2424L55.6841 13.1959L52.7307 14.9152L51.0045 11.9618Z" fill="#3265CD"/>
<path d="M46.0568 14.8336L49.017 13.1188L50.7387 16.063L47.7899 17.7984L46.0568 14.8336Z" fill="#3265CD"/>
<path d="M9.06387 87.0005H5.79453V83.6693H9.06387V87.0005Z" fill="#3265CD"/>
<path d="M107.865 87.6582V84.4324H111.173V87.6582H107.865Z" fill="#3265CD"/>
<path d="M5.80907 89.3633H9.06466V92.6899H5.81365L5.80907 89.3633Z" fill="#3265CD"/>
<path d="M111.208 93.4439H107.934V90.1265H111.208V93.4439Z" fill="#3265CD"/>
</svg>
