<svg width="86" height="82" viewBox="0 0 86 82" fill="none" xmlns="http://www.w3.org/2000/svg">
<path d="M56.303 79.9999C56.4902 78.6119 55.9473 77.4338 55.4628 76.6111L55.4626 76.6108C55.0579 75.9239 55.0205 75.501 55.0619 75.2156C55.1078 74.8986 55.2984 74.432 55.9126 73.7561L55.9134 73.7552C56.5838 73.0165 57.0603 72.735 57.4018 72.6397C57.6802 72.562 58.1063 72.54 58.8681 72.911L58.8684 72.9111C60.2962 73.6061 61.905 73.874 63.3652 73.0008C64.6538 72.2302 65.3109 70.8441 65.714 69.6682L65.7141 69.6677C66.0547 68.6733 66.3426 67.8005 66.5209 67.0625C66.6929 66.3506 66.8263 65.528 66.6674 64.7108C66.4832 63.7637 65.9608 63.063 65.2834 62.5589C64.6963 62.1219 63.978 61.8229 63.318 61.5762C62.3839 61.2271 61.9128 60.9565 61.6433 60.6816C61.4554 60.49 61.2397 60.1727 61.2108 59.3592L56.303 79.9999ZM56.303 79.9999C57.0764 80.0001 57.7851 80 58.4941 79.9989C70.9174 79.9787 81.3664 71.5963 83.5175 60.2225C85.8364 47.9597 79.657 36.6126 67.974 31.9543C67.0144 31.5717 65.8597 30.9903 65.2773 29.7705C64.7244 28.6126 64.9377 27.3653 65.1308 26.4576C66.485 20.0842 60.2243 14.6697 54.2949 16.9106L54.2948 16.9107C53.0528 17.38 51.6575 17.6956 50.3159 17.0529C49.1344 16.4869 48.4382 15.3407 47.9612 14.5553L47.9509 14.5383C47.9508 14.5381 47.9507 14.5379 47.9505 14.5377C45.1417 9.91709 41.708 6.5646 37.7312 4.49938C33.7621 2.43817 29.1353 1.59797 23.8302 2.18066L23.8301 2.18067C18.4197 2.77461 14.0095 4.62143 10.5302 7.54291C7.04464 10.4697 4.38752 14.5644 2.63582 19.8142L56.303 79.9999ZM62.959 56.2543L62.9588 56.2544C62.0268 56.5821 61.6898 56.9507 61.5205 57.2553C61.3143 57.6262 61.1713 58.2379 61.2107 59.3586L62.959 56.2543ZM62.959 56.2543C64.2405 55.8035 65.4017 54.9351 65.8797 53.5233C66.344 52.152 65.9949 50.7565 65.3588 49.587L63.6019 50.5427L65.3599 49.589C65.1219 49.1503 64.9482 48.7654 64.7477 48.3214C64.6116 48.0197 64.4631 47.6908 64.2738 47.2991M62.959 56.2543L54.6648 45.0911M54.6648 45.0911L54.6649 45.0912C55.3473 45.6831 55.8064 45.789 56.1309 45.7919C56.5218 45.7953 57.0548 45.6505 57.8729 45.1896C59.0088 44.5494 60.352 44.2066 61.698 44.7101C62.9858 45.1919 63.7769 46.2685 64.2738 47.2991M54.6648 45.0911C53.8585 44.3919 53.584 43.8655 53.4959 43.4753C53.409 43.0905 53.4345 42.5339 53.8403 41.6326C54.3623 40.4733 54.5874 39.1189 54.0005 37.8267C53.4253 36.56 52.2838 35.8301 51.1385 35.4179L51.1382 35.4178M54.6648 45.0911L51.1382 35.4178M64.2738 47.2991L62.4722 48.1677L64.2728 47.2972C64.2731 47.2978 64.2735 47.2985 64.2738 47.2991ZM51.1382 35.4178C50.8967 35.3309 50.6505 35.2414 50.401 35.1508C49.7424 34.9115 49.0609 34.6639 48.383 34.4332L48.3824 34.433M51.1382 35.4178L48.3824 34.433M48.3824 34.433C47.2533 34.0491 45.9225 33.8952 44.6837 34.5073C43.4204 35.1316 42.7362 36.3106 42.3906 37.5299C42.1284 38.4553 41.8235 38.919 41.5288 39.1753C41.2612 39.4082 40.7924 39.6526 39.8005 39.6923M48.3824 34.433L23.946 32.1444M28.1177 36.8758C28.1177 36.8761 28.1177 36.8765 28.1177 36.8768L27.6171 36.8736M28.1177 36.8758L27.6185 36.8727M28.1177 36.8758C28.1183 36.7873 28.118 36.6954 28.1164 36.6007M28.1177 36.8758L26.1177 36.8637M27.6171 36.8736C27.6176 36.8733 27.618 36.873 27.6185 36.8727M27.6171 36.8736L26.1177 36.8637M27.6171 36.8736C27.4392 36.9758 27.2705 37.079 27.1135 37.1839C26.7364 37.4359 26.3228 37.7634 25.9839 38.2052C25.8946 38.5361 25.749 38.8141 25.5147 39.0338C25.5081 39.0508 25.5016 39.0679 25.4952 39.0851C25.1947 39.896 25.265 40.6814 25.4238 41.3351M27.6185 36.8727L26.1177 36.8637M27.6185 36.8727C27.7776 36.7814 27.9441 36.6909 28.1164 36.6007M26.1177 36.8637L25.4238 41.3351M26.1177 36.8637C26.1286 35.215 25.728 34.2744 23.8055 34.1395M26.1177 36.8637L21.6942 29.1234C19.8331 31.2551 20.9832 33.9408 23.8055 34.1395M25.4238 41.3351C24.9705 41.4826 24.4923 41.5629 24.0141 41.5991L24.0141 41.5991C23.0697 41.6705 22.8916 42.0413 22.8633 42.1144C22.8154 42.2377 22.7215 42.7474 23.378 43.5804L21.8073 44.8184L23.378 43.5804C23.7802 44.0906 24.3566 44.8864 24.508 45.8876C24.5913 46.439 24.537 46.9559 24.3804 47.4332C24.4311 47.4169 24.479 47.3975 24.5254 47.3764C24.87 47.2197 25.2881 46.8804 25.8681 46.2283C26.3833 45.6487 26.5723 45.273 26.635 45.0094C26.6836 44.8044 26.702 44.485 26.4267 43.8958L26.4267 43.8957C26.0424 43.0732 25.6965 42.2967 25.4959 41.6051C25.4706 41.5179 25.4463 41.4278 25.4238 41.3351ZM28.1164 36.6007C28.1015 35.7463 27.972 34.6597 27.2941 33.744C26.4598 32.6169 25.1871 32.2316 23.946 32.1444M28.1164 36.6007C28.4712 36.4151 28.8506 36.231 29.2405 36.0446L29.2431 36.0433C29.5015 35.9202 29.707 35.8272 29.8932 35.7429C30.144 35.6292 30.3599 35.5315 30.6234 35.3972M23.946 32.1444L23.8055 34.1395M23.946 32.1444L23.9455 32.1444M30.6234 35.3972C30.623 35.3974 30.6227 35.3976 30.6223 35.3978L31.5314 37.1792L30.6234 35.3972ZM30.6234 35.3972C31.7205 34.8376 33.0461 34.5088 34.3674 34.9779C35.708 35.4539 36.5215 36.5637 36.9898 37.7325L36.99 37.733C37.3539 38.6419 37.7053 39.0828 38.0291 39.3174C38.3221 39.5296 38.8113 39.7316 39.8005 39.6923M39.8005 39.6923L39.8804 41.6907L39.801 39.6923C39.8008 39.6923 39.8007 39.6923 39.8005 39.6923ZM23.8055 34.1395L23.9455 32.1444M23.9455 32.1444C23.1624 32.0891 22.9044 31.7398 22.8352 31.5764C22.77 31.4222 22.6953 31.0177 23.2008 30.4387L23.2014 30.438C24.1366 29.3657 24.7375 28.0784 24.3877 26.6167C24.1005 25.4165 23.2222 24.5143 22.6953 23.9731M23.9455 32.1444L22.6953 23.9731M22.6953 23.9731C22.6952 23.973 22.6951 23.9729 22.695 23.9728C22.007 23.265 20.983 22.418 19.635 22.3373C18.1393 22.2477 17.0138 23.1173 16.2294 24.0876C16.1682 24.1632 16.1251 24.1994 16.1053 24.214C16.0645 24.2118 15.9576 24.1966 15.7654 24.1111C15.4666 23.9777 15.2563 23.8817 15.0775 23.7835C14.9326 23.7038 14.8562 23.6478 14.8187 23.6158C14.8165 23.5884 14.8153 23.5446 14.82 23.4807L14.8201 23.4804C14.9192 22.1284 14.6235 20.71 13.4083 19.7663C12.3663 18.9572 11.044 18.845 10.0615 18.8411M22.6953 23.9731L5.31532 23.2478M10.0615 18.8411C10.0619 18.8411 10.0622 18.8411 10.0626 18.8411L10.0536 20.8411L10.0615 18.8411ZM10.0615 18.8411C9.00018 18.8365 7.69547 18.9795 6.68391 19.8953C5.65969 20.8226 5.3916 22.1244 5.31532 23.2478M5.31532 23.2478L7.31045 23.3835L5.31531 23.248C5.29402 23.5606 5.21101 23.7 5.1711 23.7531C5.13108 23.8063 5.06455 23.8662 4.92679 23.9138C4.61256 24.0222 3.96795 24.0308 3.17973 23.624L5.31532 23.2478ZM2.17405 22.8714C2.29779 23.0389 2.57105 23.3093 3.17913 23.6236L2.17405 22.8714ZM2.17405 22.8714C2.06621 22.7254 2.01808 22.5875 2.00405 22.3978M2.17405 22.8714L2.00405 22.3978M2.00405 22.3978C1.96263 21.8379 2.18963 21.1522 2.63572 19.8145L2.00405 22.3978ZM14.8239 23.6527C14.8239 23.6527 14.8235 23.6516 14.823 23.6492C14.8237 23.6514 14.8239 23.6526 14.8239 23.6527ZM16.1249 24.214C16.1249 24.214 16.1241 24.2141 16.1224 24.2142L16.1249 24.214Z" stroke="#3265CD" stroke-width="4"/>
</svg>
