<svg width="105" height="105" viewBox="0 0 105 105" fill="none" xmlns="http://www.w3.org/2000/svg">
<path d="M0.375244 48.2196C1.80522 42.8162 3.07547 37.3604 4.73829 32.0287C5.51597 29.5344 7.05493 27.2775 8.3416 24.7266L11.0463 26.4282C0.0587981 47.3971 0.608112 67.6018 16.7319 85.2153C33.0273 103.015 53.2633 105.286 75.295 95.8952L76.8011 98.5462C68.069 103.118 58.9294 105.215 49.2794 104.481C24.5549 102.6 5.60406 85.3959 1.13652 61.0072C0.879779 59.6116 0.628997 58.216 0.375244 56.8203V48.2196Z" fill="#3265CD"/>
<path d="M52.9806 105.001C51.7387 105.001 50.4948 104.953 49.2489 104.859C37.0479 103.93 26.0201 99.3002 17.3597 91.4667C8.69925 83.6332 2.97639 73.1413 0.767249 61.0806C0.591115 60.1252 0.416971 59.169 0.244817 58.2117L0 56.8265V48.178L0.011953 48.1302C0.426913 46.5614 0.835891 44.9613 1.23145 43.4134C2.1972 39.6295 3.1973 35.7157 4.37949 31.9199C4.92282 30.1794 5.80794 28.5868 6.74683 26.9001C7.16627 26.1433 7.60215 25.3611 8.00667 24.5596L8.19175 24.1938L11.5338 26.297L11.3741 26.603C5.78854 37.2621 3.33911 47.5078 4.09291 57.0534C4.88402 67.0796 9.22767 76.4714 17.0044 84.9661C24.8678 93.5549 33.9238 98.7434 43.9201 100.387C53.4448 101.951 63.9516 100.327 75.1466 95.5566L75.4452 95.4252L77.3065 98.7001L76.9647 98.8793C69.2058 102.944 61.1514 105.001 52.9806 105.001ZM0.753802 56.7877L0.986666 58.0729C1.15982 59.0282 1.33346 59.984 1.5076 60.9403C3.68838 72.8383 9.34556 83.2003 17.8672 90.9084C26.3888 98.6165 37.2718 103.193 49.3131 104.108C58.499 104.808 67.5729 102.886 76.29 98.3942L75.1407 96.3701C63.9278 101.096 53.3866 102.695 43.8067 101.12C33.6401 99.4495 24.4409 94.1818 16.4611 85.4662C8.56938 76.846 4.16005 67.3049 3.3555 57.1056C2.59872 47.5092 5.02281 37.2323 10.5621 26.5567L8.49327 25.2551C8.13802 25.9418 7.76634 26.609 7.40661 27.2568C6.48713 28.9077 5.61542 30.469 5.09896 32.1363C3.92274 35.9083 2.92564 39.8131 1.96437 43.588C1.57329 45.121 1.16877 46.7077 0.75679 48.2645L0.753802 56.7877Z" fill="#3265CD"/>
<path d="M57.3533 0.383545C62.2492 1.67768 67.3213 2.51656 72.0113 4.34209C101.141 15.6863 113.452 51.5103 97.6343 78.4334C97.3253 78.9603 96.9656 79.4588 96.5208 80.1365L93.9833 78.6513C105.178 57.157 104.381 36.5776 87.4051 18.8672C71.1351 1.88514 51.2006 -0.129947 29.7182 9.13651C29.2704 8.33047 28.8032 7.50355 28.2628 6.54227C33.7857 3.49127 39.5653 1.78513 45.627 0.917894C46.4987 0.794002 47.3555 0.564157 48.2182 0.383545H57.3533Z" fill="#3265CD"/>
<path d="M96.6383 80.6336L93.4857 78.7887L93.6499 78.4738C99.34 67.5445 101.775 57.0794 100.882 47.3681C99.946 37.1673 95.3202 27.665 87.1315 19.121C79.2756 10.9248 70.3002 6.01395 60.4546 4.52278C51.0657 3.10176 40.7738 4.76906 29.8625 9.47542L29.5535 9.60825L27.7504 6.39305L28.0787 6.21095C33.2792 3.33757 39.002 1.48369 45.5713 0.538831C46.1519 0.455242 46.743 0.320925 47.3132 0.189571C47.5878 0.126879 47.863 0.066182 48.1386 0.0074706L48.1759 0H57.4021L57.4484 0.0119165C58.9903 0.419414 60.583 0.789609 62.1159 1.14636C65.458 1.92254 68.915 2.72559 72.1451 3.98241C86.0896 9.41422 96.9711 20.8391 101.998 35.3283C107.047 49.8714 105.572 65.6473 97.9548 78.6156C97.7428 78.9753 97.5144 79.3156 97.2502 79.7082C97.1189 79.9023 96.9801 80.1082 96.8308 80.3351L96.6383 80.6336ZM94.4754 78.5037L96.4039 79.632L96.6323 79.2917C96.8905 78.9096 97.1129 78.5798 97.3129 78.2394C104.82 65.4652 106.269 49.9161 101.295 35.5791C96.3382 21.2973 85.6149 10.0381 71.875 4.68097C68.6941 3.44206 65.264 2.64501 61.9473 1.87479C60.4218 1.51954 58.8425 1.15234 57.3051 0.747826H48.2536C47.9953 0.801562 47.7371 0.861253 47.4789 0.919467C46.8938 1.05381 46.2847 1.19112 45.6772 1.27919C39.3364 2.18523 33.8016 3.95257 28.7698 6.67967L29.8759 8.65296C40.8022 3.99138 51.1269 2.35241 60.565 3.78089C70.5778 5.29594 79.698 10.2814 87.6703 18.6001C95.9785 27.2665 100.673 36.921 101.625 47.2965C102.522 57.063 100.116 67.5594 94.4754 78.5037Z" fill="#3265CD"/>
<path d="M84.045 37.7802C83.5151 55.3712 77.1041 70.8098 63.3209 82.7989C60.5654 85.1961 57.4368 87.1649 54.5142 89.38C53.0678 90.4771 51.8274 90.2413 50.3705 89.3024C33.187 78.2373 23.1414 62.7972 21.3367 42.2522C21.1725 40.3819 20.7083 38.5011 20.8278 36.6547C20.8904 35.6725 21.689 34.368 22.5398 33.8843C24.3863 32.8395 26.4536 32.1394 28.4776 31.4378C36.8157 28.5495 44.1864 24.1357 50.3452 17.7725C51.5139 16.5664 52.7409 15.7515 54.1962 17.3441C61.6999 25.5538 71.526 29.7959 81.6851 33.4529C83.6181 34.1485 84.9123 35.0441 84.045 37.7802ZM52.3647 20.2608C45.694 27.6838 37.3262 31.8065 28.4209 35.0844C24.1579 36.6532 24.2415 36.7607 24.5848 41.1939C26.0312 59.5865 34.4603 73.9474 49.3869 84.6841C51.7214 86.3648 53.3559 86.338 55.6799 84.6647C70.6066 73.9175 79.0028 59.5402 80.4581 41.1551C80.8059 36.7622 80.8567 36.7353 76.5862 35.0501C69.92 32.4215 63.2283 29.8497 57.7309 25.0298C56.0471 23.5611 54.3918 22.0699 52.3588 20.2608H52.3647Z" fill="#3265CD"/>
<path d="M12.1987 15.57C12.2927 7.9052 11.1538 8.90825 18.9157 8.90825C26.6327 8.90825 25.6162 7.89176 25.6326 15.564C25.6416 22.9975 26.6432 22.3258 18.9306 22.3243C11.1792 22.3243 12.2748 22.999 12.1987 15.57ZM15.8348 12.316V18.6568H22.1309V12.316H15.8348Z" fill="#3265CD"/>
<path d="M21.8986 22.7102C21.5284 22.7102 21.1219 22.7077 20.6791 22.7027C20.1492 22.7027 19.5641 22.6938 18.9192 22.6938C18.2744 22.6938 17.6804 22.6937 17.149 22.7027C14.4099 22.7251 13.1606 22.7355 12.4516 22.025C11.7814 21.3533 11.7948 20.2249 11.8186 17.9799C11.8186 17.2828 11.8351 16.4872 11.8186 15.5707V15.5618C11.8306 14.5796 11.8186 13.7512 11.8186 13.0243C11.7962 10.8271 11.7858 9.72399 12.4247 9.0911C13.0635 8.45821 14.2263 8.46867 16.5265 8.50897C17.2146 8.52091 17.9953 8.53434 18.9058 8.53434C19.8193 8.53434 20.603 8.52091 21.2941 8.50748C23.6018 8.46718 24.76 8.44628 25.4138 9.10454C26.0676 9.76281 26.0467 10.9077 26.0109 13.2034C26.0004 13.8885 25.987 14.6662 25.9885 15.5692C25.9885 16.429 26.0034 17.1784 26.0169 17.8396C26.0616 20.1667 26.084 21.3354 25.4019 22.0191C24.8093 22.6206 23.8271 22.7102 21.8986 22.7102ZM18.9133 21.9474H18.9267C19.5745 21.9474 20.1612 21.9474 20.6925 21.9564C23.0808 21.9773 24.3928 21.9877 24.8854 21.4907C25.3452 21.025 25.3228 19.895 25.284 17.8441C25.2705 17.1798 25.2571 16.4276 25.2556 15.5603C25.2556 14.6513 25.2676 13.8706 25.278 13.1825C25.3123 11.1629 25.3317 10.0479 24.9033 9.62249C24.475 9.19709 23.3555 9.215 21.321 9.25082C20.6254 9.26426 19.8372 9.27768 18.9178 9.27768C18.0013 9.27768 17.2161 9.26426 16.5295 9.25232C14.5054 9.21649 13.3949 9.19708 12.9665 9.61801C12.5381 10.0389 12.562 11.0898 12.5814 13.0138C12.5814 13.7482 12.5963 14.5781 12.5814 15.5663C12.5904 16.4947 12.5814 17.2873 12.5814 17.9874C12.5605 19.9607 12.5486 21.0473 12.9964 21.4981C13.4845 21.9862 14.7875 21.9758 17.1594 21.9564C17.6729 21.9519 18.258 21.9474 18.9058 21.9474H18.9133ZM22.5121 19.0263H15.4697V11.9391H22.5121V19.0263ZM16.2161 18.2799H21.7658V12.6854H16.2161V18.2799Z" fill="#3265CD"/>
<path d="M86.0366 96.1445C78.3464 96.0639 79.4256 97.0909 79.4091 89.3888C79.3942 81.9613 78.4121 82.7165 86.1754 82.7106C93.7313 82.7106 92.8386 82.0224 92.8133 89.2574C92.7864 97.1521 93.8955 96.0535 86.0366 96.1445ZM89.3637 86.3169H82.8497V92.6711H89.3622L89.3637 86.3169Z" fill="#3265CD"/>
<path d="M89.5278 96.5298C89.2293 96.5298 88.8994 96.5298 88.5456 96.5298C87.8232 96.5298 87.0052 96.5179 86.0424 96.5298H86.035C85.1259 96.5209 84.3467 96.5298 83.6586 96.5298C81.3778 96.5477 80.233 96.5552 79.5896 95.9059C78.9463 95.2566 78.9702 94.1326 79.012 91.8892C79.0254 91.1712 79.0403 90.3577 79.0373 89.3994C79.0373 88.5576 79.0224 87.8231 79.009 87.1753C78.9642 84.8557 78.9418 83.6915 79.618 83.0093C80.3181 82.3003 81.5435 82.3123 84.2273 82.3376C84.8065 82.3376 85.4558 82.3496 86.1768 82.3481C86.835 82.3481 87.4276 82.3481 87.968 82.3376C90.6667 82.3123 91.8967 82.3003 92.6027 83.0123C93.2833 83.6975 93.2624 84.8721 93.2191 87.2126C93.2072 87.8097 93.1953 88.4979 93.1923 89.2696C93.1923 90.2532 93.2027 91.0861 93.2161 91.8205C93.255 94.1058 93.2744 95.2536 92.6266 95.9044C92.0758 96.4507 91.1727 96.5298 89.5278 96.5298ZM87.1186 95.7701C87.6396 95.7701 88.1127 95.7701 88.5516 95.7776C90.5607 95.794 91.6668 95.8029 92.0922 95.3745C92.5176 94.9461 92.4997 93.8371 92.4653 91.8279C92.4519 91.0891 92.4385 90.2517 92.4415 89.2606C92.4415 88.4844 92.4564 87.7978 92.4683 87.1932C92.5056 85.1304 92.5265 83.993 92.0683 83.5318C91.5847 83.0422 90.301 83.0541 87.9709 83.084C87.4336 83.084 86.838 83.0944 86.1798 83.0944C85.4543 83.0944 84.805 83.0944 84.2229 83.084C81.9062 83.0616 80.63 83.0496 80.1509 83.5318C79.7031 83.9885 79.7195 85.114 79.7583 87.1575C79.7717 87.8083 79.7852 88.5471 79.7867 89.3965C79.7867 90.3622 79.7747 91.1876 79.7613 91.9011C79.7255 93.8714 79.7046 94.9566 80.1225 95.379C80.5405 95.8014 81.6495 95.7985 83.6571 95.782C84.3467 95.782 85.1274 95.7716 86.0454 95.782C86.4225 95.7741 86.7803 95.7701 87.1186 95.7701ZM89.7382 93.049H82.4794V85.9484H89.7382V93.049ZM83.2258 92.3026H88.9919V86.6947H83.2258V92.3026Z" fill="#3265CD"/>
<path d="M52.4229 69.264C48.6644 69.264 44.9044 69.3088 41.1459 69.2536C37.6739 69.2013 35.7723 67.3907 35.8051 63.9531C35.8215 62.0321 36.2917 60.1155 36.5171 58.1929C36.5723 57.7183 36.4395 57.2257 36.435 56.7406C36.4126 53.9553 36.4051 51.1699 36.3857 48.3816C36.3857 47.7368 36.3668 47.09 36.329 46.4412C36.2022 44.0604 35.6991 41.6274 36.0305 39.3182C36.3484 37.1419 38.168 35.8105 40.5085 35.797C48.4733 35.7523 56.4397 35.7254 64.4045 35.797C67.2406 35.8239 69.1736 37.7196 69.181 40.5318C69.19 42.6215 68.7094 44.7246 68.484 46.8263C68.4332 47.3025 68.5646 47.795 68.5691 48.2802C68.5914 51.064 68.5974 53.8493 68.6168 56.6391C68.6168 57.2854 68.6392 57.9332 68.6735 58.5795C68.8034 60.9588 69.3333 63.4008 68.9721 65.6995C68.6108 67.9982 66.6853 69.2432 64.2284 69.2521C60.2997 69.273 56.3605 69.2625 52.4229 69.264ZM52.4378 45.7919C56.1083 45.7919 59.7788 45.7575 63.4492 45.8038C66.239 45.8396 65.9121 43.9186 65.9748 42.0991C66.039 40.187 65.5733 39.0361 63.3253 39.0585C56.1605 39.1301 48.9958 39.145 41.8414 39.051C39.4532 39.0182 39.0397 40.1959 39.0337 42.2214C39.0337 44.3485 39.1935 45.9352 41.9653 45.8292C45.4522 45.6964 48.9465 45.7979 52.4378 45.7919ZM52.7558 49.2131C48.9957 49.2131 45.2358 49.2728 41.4772 49.1922C39.0367 49.1385 39.0442 50.6848 39.0636 52.4074C39.083 54.1597 38.868 55.8808 41.5235 55.8569C48.8634 55.7873 56.2033 55.7873 63.5432 55.8569C66.2166 55.8778 65.9225 54.0911 65.9658 52.3671C66.0091 50.5983 65.8972 49.1355 63.4955 49.1952C59.9176 49.2788 56.3352 49.2131 52.7558 49.2131ZM52.3826 65.9593C56.0531 65.9593 59.725 65.8951 63.3925 65.9817C65.9464 66.0429 65.9554 64.4442 65.9793 62.6023C66.0017 60.7185 65.8808 59.2109 63.3806 59.2304C56.1302 59.2851 48.8798 59.2851 41.6295 59.2304C38.8561 59.208 39.092 61.0215 39.0531 62.8814C39.0143 64.7413 39.3442 66.0354 41.6414 65.9801C45.2193 65.8951 48.8017 65.9593 52.3826 65.9593Z" fill="#FFAD0F"/>
<path d="M64.1688 40.9197V43.917H50.9916C50.9498 42.9885 50.9065 42.0526 50.8542 40.9197H64.1688Z" fill="#3265CD"/>
<path d="M40.7013 43.828C40.758 42.713 40.8028 41.8517 40.8506 40.8546L43.827 40.7173V43.828H40.7013Z" fill="#3265CD"/>
<path d="M51.0477 51.0084H64.1668V53.9534H51.0477V51.0084Z" fill="#3265CD"/>
<path d="M40.8501 54.0238V51.019H43.913V54.0238H40.8501Z" fill="#3265CD"/>
<path d="M50.993 64.1364V61.1824H64.118V64.1364H50.993Z" fill="#3265CD"/>
<path d="M43.9555 61.1504V64.1357H40.906V61.1504H43.9555Z" fill="#3265CD"/>
</svg>
