<svg width="110" height="106" viewBox="0 0 110 106" fill="none" xmlns="http://www.w3.org/2000/svg">
<path d="M55.6059 37.8004C54.0553 37.8004 52.6272 37.8004 51.1957 37.8004C47.2439 37.7889 44.3529 34.8895 44.3529 30.9361C44.3529 22.9398 44.3859 14.9435 44.338 6.94053C44.3198 3.77478 46.2808 0.835751 49.7742 0.0827875C50.1826 0.0208041 50.5964 0.00193072 51.0087 0.0265076C68.2706 0.0265076 85.5308 0.0678938 102.793 4.43259e-05C106.192 -0.0131946 109.467 2.94076 109.434 6.68075C109.359 14.8144 109.374 22.9497 109.434 31.0834C109.459 34.7903 106.405 37.8319 102.535 37.8153C91.447 37.7674 80.3594 37.7938 69.2718 37.8153C68.818 37.8323 68.3807 37.9902 68.0207 38.2671C65.0966 40.5839 62.2105 42.957 59.2913 45.2821C58.5499 45.8729 57.6662 45.944 56.809 45.5121C55.9518 45.0802 55.5993 44.3719 55.5993 43.4468C55.6076 41.6215 55.6059 39.7697 55.6059 37.8004ZM60.1022 38.6792C60.3201 38.5875 60.5294 38.4768 60.7277 38.3482C62.4422 36.9763 64.1665 35.616 65.8578 34.211C66.5661 33.6169 67.2943 33.2976 68.2408 33.2992C79.687 33.3191 91.1326 33.3191 102.578 33.2992C104.024 33.2992 104.931 32.4718 104.931 31.1396C104.931 23.0308 104.908 14.9219 104.959 6.81311C104.963 6.50873 104.906 6.20663 104.793 5.92422C104.679 5.64182 104.511 5.38475 104.297 5.1679C104.083 4.95105 103.829 4.77873 103.548 4.66089C103.268 4.54306 102.966 4.48206 102.662 4.48143C85.5353 4.50129 68.4085 4.50512 51.2818 4.49298C49.6915 4.49298 48.864 5.34196 48.8624 6.92732C48.8624 14.9247 48.8624 22.9232 48.8624 30.9229C48.8624 32.4304 49.7378 33.2992 51.2685 33.3042C53.4199 33.3042 55.5712 33.3042 57.7225 33.3042C59.192 33.3042 60.0923 34.1978 60.1088 35.6574C60.1105 36.6305 60.1022 37.5952 60.1022 38.6792Z" fill="#3265CD"/>
<path d="M40.2347 23.9105H4.55254V79.6612H5.58683C23.4296 79.6612 41.2734 79.6646 59.1184 79.6712C59.2747 79.6836 59.4261 79.7315 59.5612 79.8112C59.6962 79.8909 59.8113 80.0004 59.8978 80.1312C60.5233 81.417 61.0794 82.7376 61.6817 84.1029C61.6073 84.1029 61.3508 84.1409 61.1042 84.1409H2.35653C0.797648 84.1409 4.95011e-06 83.2672 4.95011e-06 81.5511C4.95011e-06 63.2108 4.95011e-06 44.8699 4.95011e-06 26.5285C4.95011e-06 24.9023 4.95011e-06 23.2756 4.95011e-06 21.6483C-0.0010747 21.152 0.174487 20.6715 0.495272 20.2928C0.816058 19.9141 1.26112 19.662 1.75084 19.5814C2.13132 19.5222 2.51593 19.4934 2.90099 19.4953C15.0367 19.4854 27.1723 19.4749 39.308 19.4639C40.003 19.4639 40.2893 19.6112 40.2413 20.374C40.1818 21.506 40.2347 22.6611 40.2347 23.9105Z" fill="#3265CD"/>
<path d="M86.5772 44.8988H102.464C106.068 44.8988 108.628 46.9641 109.368 50.4741C109.405 50.6926 109.42 50.9145 109.411 51.136C109.411 59.962 109.411 68.7879 109.411 77.6139C109.411 80.5446 106.96 83.4158 104.051 83.8031C102.987 83.9324 101.916 83.9916 100.844 83.9801C90.7491 83.9933 80.6545 83.9933 70.5598 83.9801C67.2136 83.9801 64.6155 81.9942 63.8361 78.8814C63.6861 78.2119 63.6144 77.5271 63.6226 76.841C63.5994 74.4696 63.6358 72.0965 63.5978 69.7251C63.569 69.3223 63.4171 68.9381 63.1625 68.6246C60.9295 65.808 58.68 63.0063 56.414 60.2195C55.7239 59.3706 55.3218 58.4671 55.8348 57.4228C56.3312 56.4299 57.2199 56.1172 58.3039 56.1469C59.7932 56.1883 61.2826 56.132 62.772 56.1684C63.3959 56.1833 63.654 56.0344 63.6391 55.341C63.6093 53.9939 63.6871 52.6469 63.7053 51.2982C63.755 47.6294 66.7734 44.8873 70.2768 44.8955C75.7113 44.9088 81.1443 44.8988 86.5772 44.8988ZM62.5966 60.6415C62.9408 61.0867 63.1509 61.3664 63.371 61.6345C64.7413 63.3456 66.1479 65.0335 67.4668 66.7844C67.8103 67.2695 68.0031 67.8451 68.0212 68.4392C68.0791 71.1681 68.0593 73.9003 68.0493 76.6275C68.0493 78.5951 68.9082 79.4772 70.899 79.4772H100.346C101.145 79.4772 101.946 79.4971 102.744 79.464C104.041 79.4094 104.926 78.519 104.926 77.258C104.926 68.7101 104.922 60.1633 104.915 51.6176C104.915 50.249 104.064 49.4117 102.717 49.4117L70.707 49.3918C68.9843 49.3918 68.0593 50.2937 68.0593 52.023C68.0593 54.09 68.0709 56.1602 68.0709 58.2255C68.0709 59.7612 67.2087 60.63 65.6862 60.6399C64.7181 60.6531 63.7566 60.6415 62.5966 60.6415Z" fill="#3265CD"/>
<path d="M8.68957 31.6175C9.95554 31.4702 11.2761 31.2054 12.5984 31.1872C14.9367 31.1541 17.2767 31.2484 19.615 31.3428C20.4075 31.3902 21.1941 31.5098 21.9649 31.7002C22.8089 31.8905 23.1068 32.5458 23.1994 33.3551C23.2772 34.0319 23.2971 34.7468 23.5486 35.3607C23.7702 35.8349 24.1508 36.2166 24.6243 36.4397C26.5853 37.3284 28.6108 38.078 30.5619 38.9849C31.4837 39.4135 32.2416 39.4996 33.0293 38.7962C33.4468 38.4425 33.8826 38.1111 34.335 37.8033C35.0135 37.3069 35.7317 37.2887 36.4052 37.7636C40.0131 40.2991 43.14 43.4575 45.6394 47.0904C46.0978 47.7524 46.0878 48.6146 45.512 49.1491C43.8372 50.698 43.6833 52.2172 44.9592 54.16C45.7651 55.3879 46.2202 56.8889 46.6141 58.3269C46.955 59.5482 47.6815 60.005 48.82 60.1192C51.4331 60.3806 51.4463 60.3856 51.8352 62.9953C52.4218 66.9417 52.3491 70.9581 51.62 74.8806C51.5737 75.1388 51.1898 75.5243 50.9581 75.5293C48.537 75.5773 46.1127 75.559 43.5906 75.559C43.8273 74.3626 43.9547 73.2191 44.3122 72.1517C44.4628 71.7016 45.047 71.2945 45.5285 71.081C46.0879 70.8345 46.7647 70.8692 47.3637 70.6904C47.7834 70.5804 48.1683 70.3658 48.4824 70.0665C49.0203 69.4923 49.0153 66.9223 48.4229 66.3928C47.986 66.0072 47.3439 65.8334 46.768 65.6298C46.4139 65.5041 46.015 65.5107 45.641 65.4362C45.2605 65.3705 44.9115 65.1832 44.6463 64.9025C44.3811 64.6218 44.2139 64.2627 44.1698 63.879C43.4367 59.3017 41.8315 55.0801 39.1043 51.3021C38.2587 50.1321 37.9575 49.4817 39.0249 48.0602C39.0729 47.9935 39.1165 47.9239 39.1556 47.8517C39.5064 47.2361 40.3455 46.6552 39.8771 45.9138C39.2762 45.0138 38.5368 44.2146 37.6861 43.5457C37.4213 43.3306 36.6468 43.4812 36.2579 43.7112C33.9196 45.1178 33.8931 45.5464 31.1279 43.597C27.9704 41.3712 24.376 40.0093 20.5715 39.3258C18.1537 38.8923 18.2365 38.8757 17.7136 36.2147C17.4835 35.0563 17.1228 34.674 15.923 34.6674C15.3438 34.6674 14.7646 34.6459 14.1854 34.6773C13.1312 34.7336 12.7059 35.1506 12.5967 36.1799C12.5802 36.3454 12.5437 36.5109 12.5305 36.6664C12.3998 38.3097 11.6137 39.2762 9.87115 39.3242C9.50211 39.3341 9.13803 39.4996 8.68129 39.6171L8.68957 31.6175Z" fill="#EA4335"/>
<path d="M33.0154 75.5406C35.6466 67.8653 34.6124 60.89 29.0024 55.0053C23.3758 49.0942 16.4122 47.8001 8.61113 50.0954C8.61113 48.9502 8.58466 47.8778 8.6343 46.8088C8.6657 46.681 8.7271 46.5626 8.81345 46.4633C8.89979 46.364 9.00858 46.2867 9.13076 46.2379C16.0663 44.396 22.5219 45.5246 28.3768 49.6287C33.6244 53.3074 36.6892 58.4508 37.7086 64.7508C38.2481 68.0887 37.98 71.4282 37.0583 74.6983C36.8928 75.2824 36.6578 75.6282 35.9313 75.562C34.9864 75.4661 34.0199 75.5406 33.0154 75.5406Z" fill="#EA4335"/>
<path d="M47.4399 101.502H63.8099C65.2446 101.502 66.1681 102.33 66.2127 103.632C66.2525 104.863 65.2827 105.864 63.9422 105.97C63.7767 105.984 63.6113 105.97 63.4458 105.97C52.8083 105.97 42.1709 105.97 31.5334 105.97C31.0404 105.982 30.5485 105.92 30.0738 105.787C28.9766 105.446 28.4189 104.373 28.649 103.149C28.8144 102.25 29.8074 101.494 30.8218 101.494H47.4399V101.502Z" fill="#3265CD"/>
<path d="M40.8642 95.0146H53.9608V94.1011C53.9608 92.4744 53.9608 90.8477 53.9608 89.2193C53.9623 88.7761 54.1316 88.35 54.4346 88.0267C54.7377 87.7034 55.152 87.5069 55.5941 87.4767C56.0105 87.4433 56.4232 87.5765 56.7415 87.8471C57.0599 88.1176 57.2578 88.5034 57.292 88.9197C57.3814 90.2056 57.3102 91.4997 57.3053 92.7905C57.3053 94.1839 57.3053 95.5756 57.2722 96.9674C57.254 97.7948 56.7757 98.2697 55.9781 98.379C55.4322 98.4435 54.8827 98.4717 54.3331 98.4634C49.5076 98.4634 44.6814 98.4634 39.8547 98.4634C37.8689 98.4634 37.4055 97.9967 37.4072 96.0506V89.3484C37.4072 88.334 38.0691 87.5578 38.9909 87.4717C39.9126 87.3857 40.712 88.036 40.7633 89.0985C40.8443 90.8295 40.8013 92.5737 40.8146 94.3013C40.8195 94.5198 40.8443 94.7349 40.8642 95.0146Z" fill="#3265CD"/>
<path d="M76.9297 25.567H55.006C53.5597 25.567 52.6363 24.6932 52.628 23.328C52.6197 21.9627 53.515 21.0806 54.9945 21.079C69.6102 21.079 84.2282 21.079 98.8484 21.079C100.293 21.079 101.192 21.9693 101.202 23.361C101.21 24.6849 100.233 25.5852 98.7788 25.5852H76.9346L76.9297 25.567Z" fill="#3265CD"/>
<path d="M76.9605 13.1265C84.2684 13.1265 91.5768 13.1265 98.8858 13.1265C99.9151 13.1265 100.706 13.6229 101.045 14.4669C101.408 15.3737 101.211 16.4974 100.383 17.0749C99.8907 17.4069 99.3126 17.5896 98.7186 17.6012C93.4793 17.6376 88.2384 17.6211 82.9974 17.6211C73.7037 17.6211 64.4094 17.6211 55.1146 17.6211C53.0725 17.6211 51.9588 15.8404 52.9319 14.1608C53.3803 13.3846 54.0903 13.1347 54.9425 13.1347H76.9522L76.9605 13.1265Z" fill="#3265CD"/>
<path d="M86.6464 70.3751C90.671 70.3751 94.6979 70.3751 98.7269 70.3751C100.287 70.3751 101.179 71.2357 101.169 72.7251C101.161 74.0407 100.208 74.8764 98.7004 74.8764H74.6387C73.2205 74.8764 72.1448 73.8718 72.1713 72.5794C72.1978 71.2869 73.2353 70.3916 74.6635 70.39C78.6605 70.39 82.6571 70.39 86.653 70.39L86.6464 70.3751Z" fill="#3265CD"/>
<path d="M86.7073 59.1527C82.6849 59.1527 78.6581 59.1527 74.6268 59.1527C73.2036 59.1527 72.1131 58.2111 72.1694 56.9468C72.2389 55.4061 73.3857 54.6515 74.6517 54.6548C82.6728 54.678 90.6939 54.6664 98.715 54.6647C99.6202 54.6647 100.408 54.9146 100.866 55.747C101.085 56.1158 101.195 56.5388 101.184 56.9674C101.173 57.3961 101.041 57.8128 100.803 58.1697C100.363 58.8896 99.6782 59.1626 98.8524 59.1626C94.7991 59.1626 90.7469 59.1626 86.6958 59.1626L86.7073 59.1527Z" fill="#3265CD"/>
<path d="M86.7344 62.6052C90.8384 62.6052 94.943 62.6052 99.0482 62.6052C100.331 62.6052 101.155 63.4326 101.165 64.7052C101.178 66.054 100.394 66.9442 99.0945 66.9459C90.8037 66.9613 82.5117 66.9641 74.2186 66.9542C73.0916 66.9542 72.1848 65.9712 72.1666 64.7946C72.158 64.5127 72.2053 64.2318 72.3058 63.9682C72.4064 63.7047 72.558 63.4636 72.7522 63.259C72.9464 63.0544 73.1791 62.8902 73.4371 62.776C73.695 62.6618 73.973 62.5998 74.255 62.5936C78.4153 62.5936 82.5751 62.5936 86.7344 62.5936V62.6052Z" fill="#3265CD"/>
</svg>
